# xmcd
#
# Track frame offsets:
#	150
#	13785
#	27956
#	45215
#	63438
#	79474
#	97560
#	117843
#	125100
#	144190
#	160922
#	178172
#	195615
#	214515
#	228252
#
# Disc length: 3285 seconds
#
# Revision: 1
# Processed by: cddbd v1.5.2PL0 Copyright (c) Steve Scherf et al.
# Submitted via: audiograbber 1.83.01
#
DISCID=be0cd30f
DTITLE=Soluna - For All Time
DYEAR=2002
DGENRE=Pop
TTITLE0=Bring It To Me
TTITLE1=Hey Hey, You You
TTITLE2=Nothing Looks Good On Me But You
TTITLE3=For All Time
TTITLE4=Don't Wanna Live My Life Without You
TTITLE5=I'll Be Waiting For You
TTITLE6=So In Love
TTITLE7=Te Vengo A Decir (Interlude)
TTITLE8=Spanish Lullaby
TTITLE9=All Out Of Love
TTITLE10=He Should Be You
TTITLE11=Monday Mi Amor
TTITLE12=Luna Mia
TTITLE13=Bring It To Me (Spanish Version)
TTITLE14=Por La Eternidad (For All Time)
EXTD=
EXTT0=
EXTT1=
EXTT2=
EXTT3=
EXTT4=
EXTT5=
EXTT6=
EXTT7=
EXTT8=
EXTT9=
EXTT10=
EXTT11=
EXTT12=
EXTT13=
EXTT14=
PLAYORDER=
